<?xml version="1.0" encoding="UTF-8" standalone="no"?>
<svg width="24px" height="24px" viewBox="0 0 24 24" version="1.1" xmlns="http://www.w3.org/2000/svg" xmlns:xlink="http://www.w3.org/1999/xlink" xmlns:sketch="http://www.bohemiancoding.com/sketch/ns">
    <!-- Generator: Sketch 3.2.2 (9983) - http://www.bohemiancoding.com/sketch -->
    <title>Shape</title>
    <desc>Created with Sketch.</desc>
    <defs></defs>
    <g id="Page-1" stroke="none" stroke-width="1" fill="none" fill-rule="evenodd" sketch:type="MSPage">
        <g id="post-formats" sketch:type="MSArtboardGroup" transform="translate(-76.000000, -532.000000)">
            <g id="link" sketch:type="MSLayerGroup" transform="translate(75.000000, 522.000000)">
                <g id="Shape" transform="translate(0.000000, 2.000000)" sketch:type="MSShapeGroup">
                    <rect id="Rectangle-26" opacity="0" fill="#000000" x="1" y="0" width="24" height="34"></rect>
                    <path d="M23.0731515,19.2190727 L19.9719655,22.3172283 C19.7954284,22.4938668 19.6134089,22.6562646 19.4231655,22.8071603 C18.6983767,23.3880132 17.8784662,23.7892152 17.0196298,24.0154219 C16.2402899,24.2282095 15.4264102,24.2903753 14.6259627,24.2038362 C13.8814368,24.1263344 13.1451347,23.9209409 12.4568046,23.5860125 C11.8093193,23.2757314 11.2026787,22.8515253 10.6678591,22.3172283 C10.1330395,21.7829314 9.70841855,21.1768836 9.39810806,20.530031 C10.2550256,19.9220662 11.4529556,20.003402 12.2185892,20.7682874 C13.0056046,21.5545338 14.0174032,21.980383 15.0467459,22.0444658 C15.7814032,22.0888308 16.5294927,21.9491632 17.2082284,21.6240937 C17.6479263,21.4170571 18.0591151,21.1303277 18.4215095,20.7682874 L21.5226956,17.6698579 C23.2362564,15.9582453 23.2480439,13.1966612 21.534483,11.4847747 C19.822841,9.7748053 17.0336102,9.76138626 15.3200494,11.4732727 L12.9359766,13.8550158 C12.0343766,13.6129253 11.1039934,13.5200875 10.1777221,13.5704773 C10.3290395,13.3806937 10.4918703,13.1985782 10.6681332,13.0224875 L13.7693193,9.92433178 C16.3376046,7.35855607 20.5051403,7.35855607 23.0734257,9.92433178 C25.641711,12.4901075 25.641711,16.653297 23.0731515,19.2190727 Z M15.3197752,26.9648727 L12.2183151,30.0633022 C9.65002974,32.6290779 5.50771362,32.6542728 2.9375094,30.0863063 C0.369224061,27.5205306 0.345923361,23.3340631 2.9142087,20.7682874 L6.01539474,17.6698579 C6.19193181,17.4934933 6.37395139,17.3310955 6.56392062,17.1799259 C7.28898357,16.5987992 8.10889406,16.198145 8.96773043,15.9713905 C9.74679618,15.758329 10.56095,15.6964371 11.3616717,15.7835239 C12.1059235,15.8610257 12.8424997,16.0664192 13.5308298,16.4010737 C14.178041,16.711081 14.7849557,17.1352871 15.3197752,17.669584 C15.8545948,18.2041549 16.2792158,18.8102027 16.5892522,19.4567814 C15.7326088,20.0650201 14.5349529,19.9836842 13.7690452,19.218525 C12.9820298,18.4322786 11.9702312,18.0064294 10.9411626,17.9423466 C10.2065053,17.8977078 9.45841575,18.0373754 8.77995421,18.3627187 C8.33998218,18.5697553 7.92906749,18.8564847 7.56667308,19.218525 L4.46493878,22.3172283 C2.75165205,24.0293886 2.75165205,26.802201 4.46493878,28.5138136 C6.17849964,30.2259738 8.95429827,30.2259738 10.667585,28.5138136 L13.0516577,26.1320704 C13.9510647,26.3722439 14.8852857,26.4653556 15.8099123,26.4171566 C15.6591431,26.6069402 15.4963123,26.788782 15.3197752,26.9648727 Z" opacity="0.2" fill="#4D4D4D"></path>
                </g>
            </g>
        </g>
    </g>
</svg>