<?xml version="1.0" encoding="UTF-8" standalone="no"?>
<svg width="25px" height="25px" viewBox="0 0 25 25" version="1.1" xmlns="http://www.w3.org/2000/svg" xmlns:xlink="http://www.w3.org/1999/xlink" xmlns:sketch="http://www.bohemiancoding.com/sketch/ns">
    <!-- Generator: Sketch 3.2.2 (9983) - http://www.bohemiancoding.com/sketch -->
    <title>ico-star</title>
    <desc>Created with Sketch.</desc>
    <defs></defs>
    <g id="Page-1" stroke="none" stroke-width="1" fill="none" fill-rule="evenodd" sketch:type="MSPage">
        <g id="post-formats" sketch:type="MSArtboardGroup" transform="translate(-46.000000, -531.000000)" fill="#4D4D4D" opacity="0.2">
            <path d="M70.78,540.33 C70.54,540.06 70.3,539.97 70.09,539.91 C69.88,539.85 69.7,539.82 69.49,539.82 L62.59,539.82 C62.53,539.82 62.38,539.79 62.26,539.7 C62.14,539.61 62.05,539.46 62.05,539.4 L60.07,532.23 C59.98,532.02 59.92,531.81 59.77,531.6 C59.62,531.39 59.32,531.06 58.78,531.03 C58.24,531.06 57.94,531.39 57.79,531.6 C57.64,531.81 57.58,532.02 57.52,532.23 L55.51,539.4 C55.51,539.46 55.42,539.61 55.3,539.7 C55.18,539.79 55.03,539.82 54.97,539.82 L48.07,539.82 C47.8,539.82 47.56,539.85 47.26,539.97 C47.11,540.03 46.96,540.15 46.78,540.33 C46.63,540.51 46.54,540.81 46.54,541.05 C46.54,541.47 46.72,541.71 46.87,541.89 C47.02,542.07 47.17,542.19 47.35,542.31 L52.9,545.97 C52.99,546 53.17,546.3 53.14,546.51 L53.14,546.63 L50.98,553.71 C50.92,553.92 50.86,554.1 50.86,554.34 C50.86,554.55 50.89,554.82 51.1,555.12 C51.28,555.42 51.73,555.6 52.03,555.57 C52.6,555.54 52.84,555.33 53.11,555.12 L58.54,550.5 C58.57,550.44 58.69,550.41 58.81,550.41 C58.96,550.41 59.05,550.44 59.11,550.5 L64.81,555.15 C65.11,555.36 65.32,555.57 65.89,555.6 L65.92,555.6 C66.22,555.6 66.61,555.42 66.82,555.12 C67,554.85 67.03,554.58 67.03,554.37 C67.03,554.13 67,553.92 66.91,553.68 L64.48,546.57 L64.48,546.45 C64.45,546.27 64.63,545.97 64.72,545.94 L70.24,542.31 C70.39,542.19 70.57,542.07 70.72,541.89 C70.84,541.71 71.02,541.47 71.02,541.05 C71.05,540.81 70.93,540.51 70.78,540.33 L70.78,540.33 Z" id="ico-star" sketch:type="MSShapeGroup"></path>
        </g>
    </g>
</svg>