<?xml version="1.0" encoding="UTF-8" standalone="no"?>
<svg width="28px" height="32px" viewBox="0 0 28 32" version="1.1" xmlns="http://www.w3.org/2000/svg" xmlns:xlink="http://www.w3.org/1999/xlink" xmlns:sketch="http://www.bohemiancoding.com/sketch/ns">
    <!-- Generator: Sketch 3.2.2 (9983) - http://www.bohemiancoding.com/sketch -->
    <title>logo</title>
    <desc>Created with Sketch.</desc>
    <defs></defs>
    <g id="Page-1" stroke="none" stroke-width="1" fill="none" fill-rule="evenodd" sketch:type="MSPage">
        <g id="single" sketch:type="MSArtboardGroup" transform="translate(-647.000000, -3541.000000)" fill="#000000">
            <g id="comments" sketch:type="MSLayerGroup" transform="translate(0.000000, 2207.000000)">
                <g id="footer" transform="translate(0.000000, 1284.000000)" sketch:type="MSShapeGroup">
                    <g id="logo-+-All-rights-reserved.-+-Kolumn-Theme-made-wi" transform="translate(75.000000, 50.000000)">
                        <g id="logo" transform="translate(572.000000, 0.000000)">
                            <path d="M12.1421653,0.523615658 L1.67039669,6.96586477 C0.639140496,7.60051246 0.0232561983,8.69409253 0.0232561983,9.89130249 L0.0232561983,22.0610961 C0.0232561983,23.2584199 0.639140496,24.3521139 1.67039669,24.986306 L12.1421653,31.4287829 C12.6997355,31.7719004 13.3421157,31.9531957 14,31.9531957 C14.6578843,31.9531957 15.3002645,31.7719004 15.8578347,31.4287829 L26.3292562,24.9865338 C27.3608595,24.3521139 27.9767438,23.2584199 27.9767438,22.0610961 L27.9767438,9.89130249 C27.9767438,8.69409253 27.3608595,7.60051246 26.3296033,6.96586477 L15.8578347,0.523615658 C15.3002645,0.180384342 14.6501322,0.00876868327 14,0.00876868327 C13.3498678,0.00876868327 12.6997355,0.180384342 12.1421653,0.523615658 L12.1421653,0.523615658 Z M13.1492397,29.8432456 L2.67723967,23.4007687 C2.20494215,23.1102633 1.92297521,22.6094235 1.92297521,22.0610961 L1.92297521,9.89130249 C1.92297521,9.34297509 2.20494215,8.84202135 2.67758678,8.55140214 L13.1492397,2.10903915 C13.4044793,1.952 13.6987107,1.86886833 14,1.86886833 C14.3012893,1.86886833 14.5955207,1.952 14.8507603,2.10903915 L25.3224132,8.55140214 C25.7950579,8.84202135 26.0770248,9.34297509 26.0770248,9.89130249 L26.0770248,22.0610961 C26.0770248,22.6094235 25.7950579,23.1102633 25.3224132,23.4008826 L14.8507603,29.8432456 C14.5955207,30.0002847 14.2977025,30.0788612 14,30.0788612 C13.7021818,30.0788612 13.4044793,30.0002847 13.1492397,29.8432456 L13.1492397,29.8432456 Z" id="Shape"></path>
                            <path d="M8.68187281,13.7019368 C8.5993217,15.5850922 9.74569829,17.2207361 11.3947604,17.8931536 L9.52617692,21.5046844 C9.39151255,21.765151 9.58336316,22.0740289 9.87990149,22.0740289 L12.9784503,22.0740289 L12.6105445,23.7201278 C12.5699607,23.9022954 12.8252235,23.9934359 12.9123864,23.8277465 L14.3705202,21.0522771 C14.4730173,20.8571544 14.3287835,20.6243027 14.1058033,20.6252119 L12.3359122,20.6282802 C12.1260756,20.6290757 11.9907194,20.4095201 12.0882589,20.2262161 L13.8712936,16.876061 C13.997772,16.6384364 13.8228697,16.3535369 13.5506586,16.3535369 L13.1555432,16.3535369 C11.827116,16.3535369 10.6651746,15.3675821 10.5765129,14.0610444 C10.4790888,12.6281371 11.6342278,11.4316045 13.0675732,11.4316045 L15.5716619,11.4316045 C15.766856,11.4316045 15.9250405,11.5876344 15.9250405,11.7801433 L15.9250405,20.4541812 C15.9250405,20.833517 16.2371437,21.1410312 16.6219979,21.1410312 L17.1213398,21.1410312 C17.5060787,21.1410312 17.8181818,20.833517 17.8181818,20.4541812 L17.8181818,10.2525726 C17.8181818,9.87323689 17.5060787,9.5658363 17.1213398,9.5658363 L13.1884022,9.5658363 C10.8181709,9.5658363 8.78413933,11.3677379 8.68187281,13.7019368 Z" id="Shape"></path>
                        </g>
                    </g>
                </g>
            </g>
        </g>
    </g>
</svg>