<?xml version="1.0" encoding="utf-8"?>
<!-- Generator: Adobe Illustrator 16.0.4, SVG Export Plug-In . SVG Version: 6.00 Build 0)  -->
<!DOCTYPE svg PUBLIC "-//W3C//DTD SVG 1.1//EN" "http://www.w3.org/Graphics/SVG/1.1/DTD/svg11.dtd">
<svg version="1.1" xmlns="http://www.w3.org/2000/svg" xmlns:xlink="http://www.w3.org/1999/xlink" x="0px" y="0px" width="32px"
	 height="32px" viewBox="0 0 32 32" enable-background="new 0 0 32 32" xml:space="preserve">
<g id="Calque_1" xmlns:sketch="http://www.bohemiancoding.com/sketch/ns">
	<title>ico-email</title>
	<desc>Created with Sketch.</desc>
	<g id="Page-1_1_" sketch:type="MSPage">
		<g id="navigation" transform="translate(-380.000000, -792.000000)" sketch:type="MSArtboardGroup">
			<g id="_x31_423709117_x5F_Mail" transform="translate(380.000000, 792.000000)" sketch:type="MSLayerGroup">
				<g id="Page-1" sketch:type="MSShapeGroup">
					<g id="Mail">
						<path id="ico-email" fill="#FFFFFF" d="M16,0C7.164,0,0,7.164,0,16c0,8.836,7.164,16,16,16c8.836,0,16-7.164,16-16
							C32,7.164,24.836,0,16,0L16,0z M16,1.92C8.224,1.92,1.92,8.224,1.92,16S8.224,30.08,16,30.08S30.08,23.776,30.08,16
							S23.776,1.92,16,1.92L16,1.92z M23.68,20.457V10.88l-5.592,5.417L23.68,20.457L23.68,20.457z M8.32,20.457l5.592-4.161
							L8.32,10.88V20.457L8.32,20.457z M14.665,17.027L8.32,21.12h15.36l-6.345-4.093L16,18.32L14.665,17.027L14.665,17.027z
							 M8.781,10.88L16,16.678l7.219-5.798H8.781L8.781,10.88z"/>
					</g>
				</g>
			</g>
		</g>
	</g>
</g>
<g id="Calque_2">
	<path id="Meetup" fill="#FFFFFF" d="M15.106,16.466c-0.074,0-0.147-0.006-0.201-0.083c0.016-0.293,0.111-0.511,0.202-0.723
		c0.041-0.096,0.082-0.189,0.115-0.292l0.041-0.12l0.034,0.123c0.079,0.283,0.053,0.811-0.069,1.093L15.106,16.466z M24.186,14.618
		l-0.036,0.035c-0.621,0.596-0.847,1.607-1.008,2.507c0.517-0.142,0.958-0.629,1.148-1.165c0.115-0.328,0.196-0.825-0.079-1.333
		L24.186,14.618z M12.842,16.242c0.032,0.013,0.07,0.027,0.122,0.027l0.025-0.005l0.062-0.031c0.049-0.242,0.034-0.557-0.041-0.861
		c-0.191,0.221-0.308,0.479-0.352,0.807l-0.005,0.046l0.097-0.006C12.787,16.219,12.813,16.228,12.842,16.242z M26.912,21.987
		c0,0.436-0.349,0.789-0.777,0.789H5.95c-0.429,0-0.776-0.354-0.776-0.789V10.295c0-0.437,0.348-0.79,0.776-0.79h20.185
		c0.429,0,0.777,0.354,0.777,0.79V21.987z M11.703,17.69c-0.216-0.604-0.355-1.289-0.49-1.959c-0.173-0.862-0.352-1.737-0.656-2.42
		c-0.035,0.004-0.071,0.038-0.105,0.038c-0.107,0-0.201,0.025-0.294,0.011c-0.088-0.016-0.177,0.077-0.281,0.077
		c-0.01,0-0.021,0-0.03,0c-0.027,0-0.052-0.108-0.064-0.117c-0.483,0.667-0.65,1.566-0.869,2.478
		c-0.121-0.216-0.231-0.438-0.342-0.665c-0.194-0.398-0.395-0.808-0.623-1.135c-0.063-0.007-0.126-0.007-0.185-0.007
		c-0.26,0-0.497,0.048-0.719,0.114l-0.011,0.612c-0.025,1.052-0.046,1.96,0.215,2.817c0.049,0.008,0.097,0.011,0.146,0.011
		c0.313,0,0.589-0.153,0.708-0.216c0.02-0.27-0.014-0.479-0.047-0.701c-0.018-0.114-0.037-0.229,0.022-0.379
		c0.181,0.238,0.34,0.501,0.499,0.763c0.101,0.166,0.202,0.331,0.279,0.474c0.052,0.005,0.101,0.007,0.148,0.007
		c0.122,0,0.23-0.015,0.337-0.029c0.112-0.017,0.223-0.029,0.35-0.029l0.071,0.026c0.144-0.324,0.151-0.801,0.159-1.262
		c0.008-0.423,0.015-0.86,0.2-1.186c0.202,0.945,0.477,1.864,0.838,2.807c0.127-0.019,0.269-0.062,0.399-0.104
		c0.097-0.03,0.185-0.06,0.255-0.06C11.646,17.656,11.678,17.672,11.703,17.69z M14.203,17.889c-0.069-0.128-0.17-0.188-0.313-0.188
		c-0.109,0-0.233,0.032-0.353,0.065c-0.123,0.033-0.249,0.066-0.362,0.066c-0.031,0-0.06-0.009-0.089-0.015
		c-0.136-0.027-0.247-0.114-0.327-0.234c-0.145-0.22-0.18-0.579-0.05-1.017c0.209,0.057,0.473,0.066,0.762,0.066
		c0.023,0,0.047,0,0.07,0c0.074,0,0.142,0.023,0.186,0.042c0.142-0.587,0.065-1.385-0.048-1.845
		c-0.088-0.019-0.166-0.052-0.244-0.08c-0.136-0.047-0.264-0.094-0.44-0.094c-0.031,0-0.062-0.001-0.093,0.002
		c-0.554,0.076-0.932,0.868-1.018,1.612c-0.079,0.686,0.066,1.511,0.711,1.765c0.133,0.051,0.298,0.078,0.49,0.078
		C13.467,18.113,13.913,18.003,14.203,17.889z M16.404,17.72c-0.035-0.117-0.135-0.182-0.284-0.229
		c-0.126,0.201-0.324,0.311-0.556,0.311c-0.249,0-0.494-0.127-0.642-0.334c-0.141-0.197-0.175-0.443-0.051-0.72
		c0.201,0.043,0.396,0.08,0.579,0.08c0.15,0,0.287-0.023,0.402-0.037c-0.036-0.453,0.016-0.768,0.07-1.103
		c0.046-0.28,0.093-0.568,0.103-0.917c-0.253-0.195-0.522-0.294-0.822-0.321c-0.739,0.575-1.083,1.458-1.051,2.689
		c0.102,0.544,0.807,0.881,1.404,0.881C15.919,18.02,16.224,17.9,16.404,17.72z M18.969,16.031
		c-0.093-0.076-0.171-0.162-0.248-0.252c-0.148-0.168-0.287-0.327-0.515-0.389c-0.047,0.001-0.056,0.036-0.062,0.143
		c-0.005,0.085-0.011,0.216-0.14,0.216l-0.089,0.001l0.005-0.031c0.031-0.382,0.004-0.821-0.026-1.311
		c-0.042-0.689-0.086-1.337,0.035-1.922c-0.149-0.183-0.378-0.279-0.819-0.279c-0.006,0-0.011,0-0.016,0
		c-0.036,0-0.07-0.115-0.081-0.136c-0.226,0.712-0.115,1.491-0.01,2.343c0.062,0.486,0.12,0.939,0.049,1.38
		c-0.087,0-0.176-0.012-0.262-0.019c-0.076-0.007-0.151-0.015-0.219-0.015c-0.126,0-0.203,0.022-0.248,0.076
		c-0.051,0.058-0.066,0.159-0.063,0.28c0.174,0.121,0.477,0.13,0.769,0.137l0.184,0.043c0.008,0.259,0.028,0.507,0.047,0.756
		c0.031,0.363,0.06,0.739,0.051,1.148c0.079-0.011,0.148-0.015,0.216-0.019c0.13-0.01,0.254-0.017,0.395-0.033
		c-0.005-0.291-0.015-0.566-0.024-0.832c-0.016-0.373-0.027-0.726,0.003-1.107c0.13-0.038,0.286-0.046,0.438-0.055
		C18.591,16.144,18.853,16.129,18.969,16.031z M21.663,15.57c-0.182-0.151-0.408-0.413-0.663-0.413c-0.021,0-0.04,0-0.059,0
		c-0.027,0-0.051,0.071-0.064,0.058l-0.006,0.272c-0.018,0.748-0.041,1.785-0.744,2.033c-0.066-0.449-0.085-0.939-0.101-1.378
		c-0.01-0.232-0.019-0.445-0.012-0.593c-0.066-0.033-0.131-0.068-0.191-0.107c-0.175-0.107-0.34-0.206-0.605-0.242
		c-0.104,1.284,0.022,2.136,0.377,2.528c0.147,0.162,0.335,0.246,0.562,0.246c0.157,0,0.337-0.041,0.515-0.104l0.069-0.106
		c0.126-0.197,0.209-0.33,0.398-0.476c0.05-0.089,0.101-0.196,0.153-0.281C21.523,16.628,21.743,16.223,21.663,15.57z
		 M25.055,14.359c-0.387-0.23-0.724-0.341-1.031-0.341c-0.383,0-0.715,0.175-1.014,0.537c-0.566,0.678-0.683,2.09-0.765,2.802
		c-0.033,0.015-0.071,0.025-0.109,0.036c-0.097,0.03-0.188,0.059-0.225,0.104c0.297,0.35,0.354,0.942,0.413,1.516
		c0.043,0.443,0.087,0.9,0.215,1.211c0.07,0.017,0.17,0.023,0.304,0.023c0.062,0,0.127-0.002,0.194-0.002
		c0.109,0,0.217,0.005,0.305,0.031c-0.205-0.527-0.285-1.241-0.223-2.286c0.838-0.201,1.582-0.807,1.942-1.578
		C25.279,15.946,25.452,15.209,25.055,14.359z"/>
</g>
</svg>
