<?xml version="1.0" encoding="UTF-8" standalone="no"?>
<svg width="32px" height="32px" viewBox="0 0 32 32" version="1.1" xmlns="http://www.w3.org/2000/svg" xmlns:xlink="http://www.w3.org/1999/xlink" xmlns:sketch="http://www.bohemiancoding.com/sketch/ns">
    <!-- Generator: Sketch 3.2.2 (9983) - http://www.bohemiancoding.com/sketch -->
    <title>ico-pinterest</title>
    <desc>Created with Sketch.</desc>
    <defs></defs>
    <g id="Page-1" stroke="none" stroke-width="1" fill="none" fill-rule="evenodd" sketch:type="MSPage">
        <g id="navigation" sketch:type="MSArtboardGroup" transform="translate(-167.000000, -690.000000)" fill="#FFFFFF">
            <g id="left" sketch:type="MSLayerGroup">
                <g id="nav" transform="translate(110.000000, 303.000000)" sketch:type="MSShapeGroup">
                    <g id="social-2" transform="translate(0.000000, 387.000000)">
                        <path d="M73,0 C64.1634436,0 57,7.16344358 57,16 C57,24.8365564 64.1634436,32 73,32 C81.8365564,32 89,24.8365564 89,16 C89,7.16344358 81.8365564,0 73,0 L73,0 Z M73,1.92 C65.2238303,1.92 58.92,8.22383034 58.92,16 C58.92,23.7761697 65.2238303,30.08 73,30.08 C80.7761697,30.08 87.08,23.7761697 87.08,16 C87.08,8.22383034 80.7761697,1.92 73,1.92 L73,1.92 Z M66.92,13.6507937 C66.92,15.2947098 67.5075127,16.7572072 68.7676138,17.3022069 C68.9742403,17.3916956 69.1593223,17.3052854 69.219246,17.0629335 C69.260932,16.8952086 69.3595356,16.4720749 69.4035263,16.2958575 C69.4639511,16.0561596 69.4405027,15.9720849 69.2737585,15.7631718 C68.9104085,15.3091469 68.6782292,14.7213667 68.6782292,13.8887932 C68.6782292,11.4733425 70.3841505,9.31096531 73.1203985,9.31096531 C75.5432997,9.31096531 76.8744474,10.8792991 76.8744474,12.9738433 C76.8744474,15.729733 75.723171,18.055695 74.0140431,18.055695 C73.0701949,18.055695 72.3636365,17.2287476 72.5901039,16.2145428 C72.8612636,15.003739 73.3865479,13.6969711 73.3865479,12.822997 C73.3865479,12.0406348 72.9901296,11.3881 72.1697362,11.3881 C71.2048445,11.3881 70.4297446,12.4455099 70.4297446,13.862042 C70.4297446,14.7642534 70.7175387,15.3744323 70.7175387,15.3744323 C70.7175387,15.3744323 69.7301005,19.8065093 69.5570433,20.5827146 C69.2123317,22.1285436 69.5052363,24.0235164 69.5299874,24.2149138 C69.5445174,24.3282873 69.6821014,24.3552507 69.74443,24.2695836 C69.8334137,24.14655 70.9825858,22.6436076 71.3732922,21.1418329 C71.4838204,20.716576 72.0079021,18.5146031 72.0079021,18.5146031 C72.3213492,19.1480299 73.2375403,19.7059805 74.2118515,19.7059805 C77.1122383,19.7059805 79.08,16.9048687 79.08,13.1554744 C79.08,10.3203931 76.8132211,7.68 73.3680096,7.68 C69.0813613,7.68 66.92,10.9357736 66.92,13.6507937 L66.92,13.6507937 Z" id="ico-pinterest"></path>
                    </g>
                </g>
            </g>
        </g>
    </g>
</svg>