<?xml version="1.0" encoding="UTF-8" standalone="no"?>
<svg width="32px" height="32px" viewBox="0 0 32 32" version="1.1" xmlns="http://www.w3.org/2000/svg" xmlns:xlink="http://www.w3.org/1999/xlink" xmlns:sketch="http://www.bohemiancoding.com/sketch/ns">
    <!-- Generator: Sketch 3.2.2 (9983) - http://www.bohemiancoding.com/sketch -->
    <title>ico-instagram</title>
    <desc>Created with Sketch.</desc>
    <defs></defs>
    <g id="Page-1" stroke="none" stroke-width="1" fill="none" fill-rule="evenodd" sketch:type="MSPage">
        <g id="navigation" sketch:type="MSArtboardGroup" transform="translate(-251.000000, -690.000000)" fill="#FFFFFF">
            <g id="left" sketch:type="MSLayerGroup">
                <g id="nav" transform="translate(110.000000, 303.000000)" sketch:type="MSShapeGroup">
                    <g id="social-2" transform="translate(0.000000, 387.000000)">
                        <path d="M157,0 C148.163444,0 141,7.16344358 141,16 C141,24.8365564 148.163444,32 157,32 C165.836556,32 173,24.8365564 173,16 C173,7.16344358 165.836556,0 157,0 L157,0 Z M157,1.92 C149.22383,1.92 142.92,8.22383034 142.92,16 C142.92,23.7761697 149.22383,30.08 157,30.08 C164.77617,30.08 171.08,23.7761697 171.08,16 C171.08,8.22383034 164.77617,1.92 157,1.92 L157,1.92 Z M164.00884,22.0861862 C164.020902,22.0208246 164.029747,21.9544124 164.04,21.8888406 L164.04,10.1111594 C164.03015,10.0466385 164.021706,9.98190746 164.009644,9.9175968 C163.886412,9.25788691 163.365944,8.74592346 162.726866,8.65450144 C162.70033,8.65092864 162.674397,8.64483379 162.648263,8.64 L151.351737,8.64 C151.283587,8.6528201 151.215036,8.66248774 151.147891,8.67846029 C150.524093,8.82704742 150.062526,9.35225126 149.97367,10.013012 C149.970052,10.0405437 149.964624,10.0678652 149.96,10.0953969 L149.96,21.9052336 C149.972866,21.9800525 149.983119,22.055502 149.999201,22.1299006 C150.137108,22.7675431 150.657778,23.2618527 151.277154,23.3450783 C151.307108,23.3488612 151.337262,23.354956 151.367216,23.36 L162.632784,23.36 C162.705959,23.3469697 162.779335,23.3362513 162.851707,23.3198584 C163.426655,23.1922878 163.896464,22.6908326 164.00884,22.0861862 L164.00884,22.0861862 Z M151.483412,21.1833147 C151.483412,21.4966716 151.742943,21.7661039 152.04268,21.7661039 C155.346823,21.7663141 158.650765,21.7663141 161.954908,21.7661039 C162.257459,21.7661039 162.515583,21.497092 162.515583,21.1814232 C162.515784,19.0055785 162.515583,16.829944 162.515583,14.6543096 L162.515583,14.6091239 L161.171491,14.6091239 C161.361264,15.2431936 161.419563,15.8881919 161.345181,16.54559 C161.270398,17.2031981 161.067759,17.8152004 160.737666,18.3803358 C160.407372,18.9461016 159.979177,19.414771 159.454888,19.787815 C158.09592,20.7554175 156.306745,20.8405345 154.864751,19.9944077 C154.135813,19.5671411 153.563478,18.9713215 153.164432,18.2035865 C152.569179,17.0579738 152.474092,15.8556162 152.823282,14.6080731 C152.377396,14.6084934 151.933319,14.6084934 151.483211,14.6084934 L151.483211,14.6482147 C151.483211,16.8265814 151.48301,19.004948 151.483412,21.1833147 L151.483412,21.1833147 Z M156.934564,18.9811993 C158.528739,19.0169275 159.818151,17.6853181 159.851723,16.0657818 C159.886099,14.3955956 158.597492,13.0160685 157.000101,13.0171194 C155.438493,13.0160685 154.168983,14.3296036 154.147071,15.9548144 C154.124555,17.6237396 155.402508,18.9467322 156.934564,18.9811993 L156.934564,18.9811993 Z M162.515382,11.8282125 C162.515583,11.3635363 162.515583,10.8986499 162.515382,10.4339738 C162.515382,10.1006511 162.263088,9.83542202 161.944655,9.8352119 C161.501382,9.83500173 161.058109,9.83479155 160.614635,9.8352119 C160.297007,9.83563219 160.043909,10.1014917 160.043708,10.4348144 C160.043507,10.8954974 160.0423,11.3561805 160.045316,11.8170737 C160.045718,11.8857978 160.058182,11.9572541 160.079089,12.0224055 C160.158697,12.2676687 160.373599,12.4181473 160.636749,12.4194083 C160.850646,12.4198287 161.064542,12.4191981 161.27864,12.4191981 C161.510228,12.416466 161.742619,12.4210897 161.974408,12.4152051 C162.272537,12.4074289 162.515382,12.1403084 162.515382,11.8282125 L162.515382,11.8282125 Z" id="ico-instagram"></path>
                    </g>
                </g>
            </g>
        </g>
    </g>
</svg>