<?xml version="1.0" encoding="UTF-8" standalone="no"?>
<svg width="32px" height="32px" viewBox="0 0 32 32" version="1.1" xmlns="http://www.w3.org/2000/svg" xmlns:xlink="http://www.w3.org/1999/xlink" xmlns:sketch="http://www.bohemiancoding.com/sketch/ns">
    <!-- Generator: Sketch 3.2.2 (9983) - http://www.bohemiancoding.com/sketch -->
    <title>ico-flickr</title>
    <desc>Created with Sketch.</desc>
    <defs></defs>
    <g id="Page-1" stroke="none" stroke-width="1" fill="none" fill-rule="evenodd" sketch:type="MSPage">
        <g id="navigation" sketch:type="MSArtboardGroup" transform="translate(-379.000000, -408.000000)" fill="#FFFFFF">
            <g id="1423709149_Flickr" sketch:type="MSLayerGroup" transform="translate(379.000000, 408.000000)">
                <g id="Page-1" sketch:type="MSShapeGroup">
                    <g id="Flickr">
                        <path d="M0,16 C0,24.8365564 7.16344358,32 16,32 C24.8365564,32 32,24.8365564 32,16 C32,7.16344358 24.8365564,0 16,0 C7.16344358,0 0,7.16344358 0,16 L0,16 Z M1.92,16 C1.92,23.7761697 8.22383034,30.08 16,30.08 C23.7761697,30.08 30.08,23.7761697 30.08,16 C30.08,8.22383034 23.7761697,1.92 16,1.92 C8.22383034,1.92 1.92,8.22383034 1.92,16 L1.92,16 Z M7.04,15.6117695 C7.04,17.8717364 8.87452493,19.7035727 11.1376993,19.7036065 C13.4009076,19.7036065 15.2354326,17.8717364 15.2354326,15.6117695 C15.2354326,13.3518364 13.4009415,11.5199662 11.1376993,11.52 C8.87452493,11.52 7.04,13.3518364 7.04,15.6117695 L7.04,15.6117695 Z M21.3776993,19.7036065 C23.6409415,19.7036065 25.4754326,17.8717364 25.4754326,15.6117695 C25.4754326,13.3518701 23.6409076,11.52 21.3776993,11.52 C19.1144911,11.52 17.28,13.3518701 17.28,15.6117695 C17.28,17.8717364 19.1145249,19.7036065 21.3776993,19.7036065 L21.3776993,19.7036065 Z M21.372713,12.7790164 C22.937218,12.7790164 24.2054998,14.0472982 24.2054998,15.6118033 C24.2054998,17.1763084 22.937218,18.4445901 21.372713,18.4445901 C19.8082079,18.4445901 18.5399261,17.1763084 18.5399261,15.6118033 C18.5399261,14.0472982 19.8082079,12.7790164 21.372713,12.7790164 L21.372713,12.7790164 Z" id="ico-flickr"></path>
                    </g>
                </g>
            </g>
        </g>
    </g>
</svg>