<?xml version="1.0" encoding="UTF-8" standalone="no"?>
<svg width="32px" height="32px" viewBox="0 0 32 32" version="1.1" xmlns="http://www.w3.org/2000/svg" xmlns:xlink="http://www.w3.org/1999/xlink" xmlns:sketch="http://www.bohemiancoding.com/sketch/ns">
    <!-- Generator: Sketch 3.2.2 (9983) - http://www.bohemiancoding.com/sketch -->
    <title>ico-youtube</title>
    <desc>Created with Sketch.</desc>
    <defs></defs>
    <g id="Page-1" stroke="none" stroke-width="1" fill="none" fill-rule="evenodd" sketch:type="MSPage">
        <g id="navigation" sketch:type="MSArtboardGroup" transform="translate(-386.000000, -863.000000)" fill="#FFFFFF">
            <g id="1423709121_YouTube" sketch:type="MSLayerGroup" transform="translate(386.000000, 863.000000)">
                <g id="Page-1" sketch:type="MSShapeGroup">
                    <g id="YouTube">
                        <path d="M32,16 C32,7.16344358 24.8365564,0 16,0 C7.16344358,0 0,7.16344358 0,16 C0,24.8365564 7.16344358,32 16,32 C24.8365564,32 32,24.8365564 32,16 L32,16 Z M30.08,16 C30.08,8.22383034 23.7761697,1.92 16,1.92 C8.22383034,1.92 1.92,8.22383034 1.92,16 C1.92,23.7761697 8.22383034,30.08 16,30.08 C23.7761697,30.08 30.08,23.7761697 30.08,16 L30.08,16 Z M23.5317293,19.6899055 C23.34069,20.5201298 22.6615784,21.1322792 21.8444243,21.2235913 C19.908786,21.4398757 17.9496931,21.44095 15.9990152,21.4398757 C14.0485164,21.44095 12.0892444,21.4398757 10.1537852,21.2235913 C9.3364521,21.1322792 8.6576985,20.5201298 8.46683827,19.6899055 C8.19505037,18.5075028 8.19505037,17.2173161 8.19505037,16.0001791 C8.19505037,14.7828629 8.19827315,13.4924972 8.46988198,12.3100945 C8.66092128,11.4798702 9.33967482,10.8675418 10.1568289,10.7764087 C12.0924672,10.5601243 14.0515601,10.55905 16.002238,10.5601243 C17.9527368,10.55905 19.9120088,10.5601243 21.847468,10.7764087 C22.6648012,10.8675418 23.3439128,11.4798702 23.5347731,12.3100945 C23.8065609,13.4924972 23.8049495,14.7828629 23.8049495,16.0001791 C23.8049495,17.2173161 23.8033381,18.5075028 23.5317293,19.6899055 L23.5317293,19.6899055 Z M14.5950504,13.12 L18.9150504,15.6141532 L14.5950504,18.1083063 L14.5950504,13.12 L14.5950504,13.12 Z" id="ico-youtube"></path>
                    </g>
                </g>
            </g>
        </g>
    </g>
</svg>