<?xml version="1.0" encoding="UTF-8" standalone="no"?>
<svg width="32px" height="32px" viewBox="0 0 32 32" version="1.1" xmlns="http://www.w3.org/2000/svg" xmlns:xlink="http://www.w3.org/1999/xlink" xmlns:sketch="http://www.bohemiancoding.com/sketch/ns">
    <!-- Generator: Sketch 3.2.2 (9983) - http://www.bohemiancoding.com/sketch -->
    <title>ico-dribbble</title>
    <desc>Created with Sketch.</desc>
    <defs></defs>
    <g id="Page-1" stroke="none" stroke-width="1" fill="none" fill-rule="evenodd" sketch:type="MSPage">
        <g id="navigation" sketch:type="MSArtboardGroup" transform="translate(-385.000000, -344.000000)" fill="#FFFFFF">
            <g id="1423709156_Dribbble" sketch:type="MSLayerGroup" transform="translate(385.000000, 344.000000)">
                <g id="Page-1" sketch:type="MSShapeGroup">
                    <g id="Dribbble">
                        <path d="M32,16 C32,7.16344358 24.8365564,0 16,0 C7.16344358,0 0,7.16344358 0,16 C0,24.8365564 7.16344358,32 16,32 C24.8365564,32 32,24.8365564 32,16 L32,16 Z M30.08,16 C30.08,8.22383034 23.7761697,1.92 16,1.92 C8.22383034,1.92 1.92,8.22383034 1.92,16 C1.92,23.7761697 8.22383034,30.08 16,30.08 C23.7761697,30.08 30.08,23.7761697 30.08,16 L30.08,16 Z M24.7836738,17.8034113 C24.6697415,18.3800413 24.5009905,18.946151 24.2799234,19.4873268 C24.0639288,20.0189292 23.796024,20.5312086 23.4829723,21.0089458 C23.1745875,21.4836671 22.8193311,21.9290361 22.4290733,22.3350232 C22.03797,22.739257 21.6076381,23.1071598 21.1507254,23.4287723 C20.6891796,23.7516122 20.1951686,24.0294243 19.6829638,24.254774 C19.161087,24.4831396 18.6146922,24.658131 18.0599107,24.7762415 C17.4903845,24.8978938 16.9047611,24.96 16.3196111,24.96 C15.7340215,24.96 15.1484319,24.8978938 14.5797174,24.7762415 C14.0240904,24.658131 13.4777294,24.4831396 12.9562584,24.254774 C12.4440874,24.0294243 11.9496029,23.7516122 11.4880572,23.4287723 C11.0311444,23.1071949 10.6008125,22.739257 10.2105547,22.3350232 C9.81989107,21.9290361 9.46463475,21.4836671 9.15581024,21.0089458 C8.84444947,20.5312086 8.57610496,20.0188941 8.35926502,19.4873268 C8.13816403,18.946151 7.96900723,18.3800063 7.85466912,17.8034113 C7.73907974,17.2127538 7.68,16.6068065 7.68,16.0000175 C7.68,15.3927727 7.73904595,14.7855279 7.85470291,14.1961679 C7.96904102,13.6195378 8.13819782,13.0525516 8.35929882,12.5122523 C8.57613875,11.9802643 8.84448326,11.4675289 9.1558441,10.9897567 C9.46466854,10.5146497 9.81992486,10.0701223 10.2105885,9.66367923 C10.6008463,9.25941043 11.0311782,8.89238432 11.488091,8.57126278 C11.9496368,8.24705517 12.4441212,7.96927821 12.9562922,7.74350765 C13.4777633,7.51465114 14.0240904,7.33923885 14.5797512,7.22200512 C15.1484657,7.10126451 15.7340553,7.04 16.3196449,7.04 C16.9047949,7.04 17.4903845,7.10126451 18.0599444,7.22200512 C18.614726,7.33927392 19.161087,7.51468621 19.6829976,7.74350765 C20.1951686,7.96924314 20.6892134,8.24705517 21.1507592,8.57126278 C21.6076719,8.89238432 22.0380377,9.25941043 22.4291071,9.66367923 C22.8193649,10.0701223 23.1746213,10.5146497 23.4830061,10.9897567 C23.796024,11.4675289 24.0639288,11.9802994 24.2799234,12.5122523 C24.5009905,13.0525516 24.6697415,13.6195378 24.7836738,14.1961679 C24.9005144,14.7855279 24.96,15.3927727 24.96,16.0000175 C24.96,16.6068065 24.9005144,17.2127538 24.7836738,17.8034113 L24.7836738,17.8034113 Z M9.09923302,14.4223943 C9.29375322,14.4241477 12.3685383,14.4644063 15.9111931,13.4883117 C14.6341302,11.1354309 13.2697159,9.2152944 13.1714075,9.07919379 C11.1137952,10.0867798 9.57809357,12.052891 9.09923302,14.4223943 L9.09923302,14.4223943 Z M8.9469513,15.7559062 C8.9448208,15.8381417 8.94103322,15.917747 8.94103322,16.0000175 C8.94103322,17.9656729 9.65614509,19.7576694 10.8315516,21.1126431 C10.8290152,21.1086804 12.8482443,17.3938822 16.8300913,16.058652 C16.9262692,16.0254071 17.0241718,15.995634 17.1211952,15.9667727 C16.9360088,15.5319242 16.7338796,15.096164 16.5225181,14.6665407 C12.723355,15.845997 9.07772486,15.7611315 8.9469513,15.7559062 L8.9469513,15.7559062 Z M16.3196111,8.34903418 C15.7200885,8.34903418 15.1382865,8.42429101 14.5809686,8.56340742 C14.6914853,8.71742797 16.0774416,10.624028 17.3393203,13.0267412 C20.123441,11.9443893 21.174364,10.2853723 21.1925242,10.2573876 C19.8934797,9.06955002 18.1877759,8.34903418 16.3196111,8.34903418 L16.3196111,8.34903418 Z M17.5751658,17.2512589 C13.2216841,18.8250719 11.7999956,21.9967564 11.7846136,22.0313793 C13.0372522,23.0415468 14.6083949,23.6510009 16.3196111,23.6510009 C17.341417,23.6510009 18.314728,23.43526 19.2002818,23.0446328 C19.0910164,22.3761234 18.6623754,20.0328863 17.6241002,17.2346365 C17.6076648,17.2402825 17.5912293,17.245157 17.5751658,17.2512589 L17.5751658,17.2512589 Z M23.6044797,17.2127187 C23.4526039,17.1619747 21.3882618,16.4842774 19.0066409,16.880235 C19.9744735,19.6382614 20.3677073,21.884394 20.4428166,22.3455087 C22.0995862,21.1861466 23.2762438,19.3451595 23.6044797,17.2127187 L23.6044797,17.2127187 Z M18.3974465,15.2763806 C18.4518932,15.4102718 18.5050548,15.5415329 18.5569313,15.672759 C21.0916794,15.3419936 23.5888897,15.8984945 23.6956527,15.9212188 C23.6787775,14.1073747 23.05308,12.4426765 22.0177808,11.1393936 C22.0038479,11.1599087 20.8204266,12.9331085 17.9072231,14.1668858 C18.0784766,14.5317727 18.2443193,14.9031473 18.3974465,15.2763806 L18.3974465,15.2763806 Z" id="ico-dribbble"></path>
                    </g>
                </g>
            </g>
        </g>
    </g>
</svg>