<?xml version="1.0" encoding="UTF-8" standalone="no"?>
<svg width="32px" height="32px" viewBox="0 0 32 32" version="1.1" xmlns="http://www.w3.org/2000/svg" xmlns:xlink="http://www.w3.org/1999/xlink" xmlns:sketch="http://www.bohemiancoding.com/sketch/ns">
    <!-- Generator: Sketch 3.2.2 (9983) - http://www.bohemiancoding.com/sketch -->
    <title>ico-behance</title>
    <desc>Created with Sketch.</desc>
    <defs></defs>
    <g id="Page-1" stroke="none" stroke-width="1" fill="none" fill-rule="evenodd" sketch:type="MSPage">
        <g id="navigation" sketch:type="MSArtboardGroup" transform="translate(-334.000000, -690.000000)" fill="#FFFFFF">
            <g id="left" sketch:type="MSLayerGroup">
                <g id="nav" transform="translate(110.000000, 303.000000)" sketch:type="MSShapeGroup">
                    <g id="social-2" transform="translate(0.000000, 387.000000)">
                        <path d="M240,32 C248.836556,32 256,24.8365564 256,16 C256,7.16344358 248.836556,0 240,0 C231.163444,0 224,7.16344358 224,16 C224,24.8365564 231.163444,32 240,32 L240,32 Z M240,30.08 C247.77617,30.08 254.08,23.7761697 254.08,16 C254.08,8.22383034 247.77617,1.92 240,1.92 C232.22383,1.92 225.92,8.22383034 225.92,16 C225.92,23.7761697 232.22383,30.08 240,30.08 L240,30.08 Z M238.775467,14.9244444 C238.775467,14.9244444 240.446933,14.8 240.446933,12.8398222 C240.446933,10.8792889 239.079467,9.92213333 237.346844,9.92213333 L234.157511,9.92213333 L234.064,9.92213333 L231.645511,9.92213333 L231.645511,20.8785778 L234.064,20.8785778 L234.157511,20.8785778 L237.346844,20.8785778 C237.346844,20.8785778 240.827022,20.9884444 240.827022,17.6444444 C240.826667,17.6444444 240.978844,14.9244444 238.775467,14.9244444 L238.775467,14.9244444 Z M234.157511,11.8695111 L236.936178,11.8695111 L237.346489,11.8695111 C237.346489,11.8695111 238.1216,11.8695111 238.1216,13.0090667 C238.1216,14.1493333 237.665422,14.3146667 237.1488,14.3146667 L234.157156,14.3146667 L234.157156,11.8695111 L234.157511,11.8695111 Z M237.185422,18.9312 C237.101156,18.9333333 237.029689,18.9312 236.981689,18.9312 L234.157511,18.9312 L234.157511,16.0035556 L237.346844,16.0035556 C237.346844,16.0035556 238.502044,15.9882667 238.502044,17.5075556 C238.501689,18.7896889 237.639111,18.9216 237.185422,18.9312 L237.185422,18.9312 Z M245.469156,12.7096889 C241.255822,12.7096889 241.259378,16.9194667 241.259378,16.9194667 C241.259378,16.9194667 240.970667,21.1075556 245.469156,21.1075556 C245.469156,21.1075556 249.218489,21.3216 249.218489,18.1937778 L247.289956,18.1937778 C247.289956,18.1937778 247.353956,19.3720889 245.533156,19.3720889 C245.533156,19.3720889 243.605333,19.5004444 243.605333,17.4652444 L249.282489,17.4652444 C249.282133,17.4652444 249.903644,12.7096889 245.469156,12.7096889 L245.469156,12.7096889 Z M243.583644,16.0035556 C243.583644,16.0035556 243.819022,14.3146667 245.511467,14.3146667 C247.204622,14.3146667 247.182222,16.0035556 247.182222,16.0035556 L243.583644,16.0035556 L243.583644,16.0035556 Z M243.112178,10.5674667 L247.631644,10.5674667 L247.631644,11.9168 L243.112178,11.9168 L243.112178,10.5674667 Z" id="ico-behance"></path>
                    </g>
                </g>
            </g>
        </g>
    </g>
</svg>