<?xml version="1.0" encoding="UTF-8" standalone="no"?>
<svg width="32px" height="32px" viewBox="0 0 32 32" version="1.1" xmlns="http://www.w3.org/2000/svg" xmlns:xlink="http://www.w3.org/1999/xlink" xmlns:sketch="http://www.bohemiancoding.com/sketch/ns">
    <!-- Generator: Sketch 3.2.2 (9983) - http://www.bohemiancoding.com/sketch -->
    <title>ico-vimeo</title>
    <desc>Created with Sketch.</desc>
    <defs></defs>
    <g id="Page-1" stroke="none" stroke-width="1" fill="none" fill-rule="evenodd" sketch:type="MSPage">
        <g id="navigation" sketch:type="MSArtboardGroup" transform="translate(-379.000000, -645.000000)" fill="#FFFFFF">
            <g id="1423709128_Vimeo" sketch:type="MSLayerGroup" transform="translate(379.000000, 645.000000)">
                <g id="Page-1" sketch:type="MSShapeGroup">
                    <g id="Vimeo">
                        <path d="M32,16 C32,7.16344358 24.8365564,0 16,0 C7.16344358,0 0,7.16344358 0,16 C0,24.8365564 7.16344358,32 16,32 C24.8365564,32 32,24.8365564 32,16 L32,16 Z M30.08,16 C30.08,8.22383034 23.7761697,1.92 16,1.92 C8.22383034,1.92 1.92,8.22383034 1.92,16 C1.92,23.7761697 8.22383034,30.08 16,30.08 C23.7761697,30.08 30.08,23.7761697 30.08,16 L30.08,16 Z M11.0821197,13.3798844 C11.4769924,13.8641441 12.9846027,19.7114486 13.4878484,20.7901091 C13.927087,21.7360501 15.1386947,22.9866269 16.4673775,22.0935501 C17.7952867,21.2004447 22.2111533,17.2901503 23.001617,12.6723627 C23.79139,8.05603642 17.6876595,9.02306586 17.0411224,13.0449914 C18.6570506,12.038765 19.519588,13.4538371 18.692687,15.0559828 C17.8672776,16.6565812 17.1130858,17.7005146 16.7181578,17.7005146 C16.3240034,17.7005146 16.0207631,16.6293898 15.5691485,14.7572495 C15.1022849,12.8217293 15.1051579,9.3353232 13.1641656,9.73058752 C11.3337012,10.1032162 8.928,13.082727 8.928,13.082727 L9.50251846,13.8641441 C9.50251846,13.8641441 10.6872194,12.8955674 11.0821197,13.3798844 L11.0821197,13.3798844 Z" id="ico-vimeo"></path>
                    </g>
                </g>
            </g>
        </g>
    </g>
</svg>