<?xml version="1.0" encoding="UTF-8" standalone="no"?>
<svg width="32px" height="32px" viewBox="0 0 32 32" version="1.1" xmlns="http://www.w3.org/2000/svg" xmlns:xlink="http://www.w3.org/1999/xlink" xmlns:sketch="http://www.bohemiancoding.com/sketch/ns">
    <!-- Generator: Sketch 3.2.2 (9983) - http://www.bohemiancoding.com/sketch -->
    <title>ico-skype</title>
    <desc>Created with Sketch.</desc>
    <defs></defs>
    <g id="Page-1" stroke="none" stroke-width="1" fill="none" fill-rule="evenodd" sketch:type="MSPage">
        <g id="navigation" sketch:type="MSArtboardGroup" transform="translate(-387.000000, -565.000000)" fill="#FFFFFF">
            <g id="1423709134_Skype" sketch:type="MSLayerGroup" transform="translate(387.000000, 565.000000)">
                <g id="Page-1" sketch:type="MSShapeGroup">
                    <g id="Skype">
                        <path d="M32,16 C32,7.16344358 24.8365564,0 16,0 C7.16344358,0 0,7.16344358 0,16 C0,24.8365564 7.16344358,32 16,32 C24.8365564,32 32,24.8365564 32,16 L32,16 Z M30.08,16 C30.08,8.22383034 23.7761697,1.92 16,1.92 C8.22383034,1.92 1.92,8.22383034 1.92,16 C1.92,23.7761697 8.22383034,30.08 16,30.08 C23.7761697,30.08 30.08,23.7761697 30.08,16 L30.08,16 Z M16.2814532,8.94417664 C15.878204,8.94417664 15.482861,8.977784 15.098143,9.0418281 C14.4083631,8.58578317 13.5874584,8.32 12.7039914,8.32 C10.2814337,8.32 8.32,10.3113287 8.32,12.768404 C8.32,13.6624221 8.57934323,14.4929667 9.02593613,15.1903185 C8.96577997,15.5713178 8.93503008,15.9614797 8.93503008,16.3589654 C8.93503008,20.4544927 12.2230548,23.7741665 16.281422,23.7741665 C16.7394523,23.7741665 17.1853889,23.7289551 17.6187944,23.6495023 C18.2922305,24.0733667 19.085479,24.32 19.9358523,24.32 C22.3577851,24.32 24.32,22.328164 24.32,19.8713423 C24.3199062,18.9426072 24.0400006,18.0791212 23.559189,17.3652827 C23.6031264,17.0355505 23.6284076,16.7003334 23.6284076,16.3590923 C23.6284076,12.2641992 20.3386953,8.94417664 16.2814532,8.94417664 L16.2814532,8.94417664 Z M12.7793847,18.3638849 C13.6903421,18.3018417 14.237317,19.4169293 14.7235134,19.7271135 C15.2091155,20.0361494 17.0568369,20.7402205 18.0328269,19.6024529 C19.0955898,18.3638849 17.3260701,17.7229735 16.0290147,17.5289647 C14.1771016,17.2493396 11.8389608,16.2277156 12.0208583,14.2144525 C12.2028183,12.2024653 13.6969424,11.170857 15.2693621,11.0253345 C17.2737375,10.8397789 18.5785818,11.3349764 19.6106582,12.2330244 C20.8040493,13.2706616 20.1583213,14.4306628 19.3979805,14.5239987 C18.6406428,14.6167924 17.7900259,12.8172835 16.1200416,12.7902332 C14.3987569,12.7626726 13.2354265,14.6167924 15.3603578,15.1438569 C17.4863839,15.6703472 19.7631205,15.8866532 20.5830197,17.8685597 C21.403482,19.8506577 19.3082049,21.9555981 16.9694385,22.079844 C14.6325803,22.2039624 13.5390372,21.6767385 12.5372719,20.7180509 C11.4185165,19.6472707 11.8679268,18.42596 12.7793847,18.3638849 L12.7793847,18.3638849 Z" id="ico-skype"></path>
                    </g>
                </g>
            </g>
        </g>
    </g>
</svg>