<?xml version="1.0" encoding="UTF-8" standalone="no"?>
<svg width="32px" height="32px" viewBox="0 0 32 32" version="1.1" xmlns="http://www.w3.org/2000/svg" xmlns:xlink="http://www.w3.org/1999/xlink" xmlns:sketch="http://www.bohemiancoding.com/sketch/ns">
    <!-- Generator: Sketch 3.2.2 (9983) - http://www.bohemiancoding.com/sketch -->
    <title>ico-github</title>
    <desc>Created with Sketch.</desc>
    <defs></defs>
    <g id="Page-1" stroke="none" stroke-width="1" fill="none" fill-rule="evenodd" sketch:type="MSPage">
        <g id="navigation" sketch:type="MSArtboardGroup" transform="translate(-110.000000, -737.000000)" fill="#FFFFFF">
            <g id="left" sketch:type="MSLayerGroup">
                <g id="nav" transform="translate(110.000000, 303.000000)" sketch:type="MSShapeGroup">
                    <g id="social-2" transform="translate(0.000000, 387.000000)">
                        <path d="M16,79 C24.8365564,79 32,71.8365564 32,63 C32,54.1634436 24.8365564,47 16,47 C7.16344358,47 0,54.1634436 0,63 C0,71.8365564 7.16344358,79 16,79 L16,79 Z M16,77.08 C23.7761697,77.08 30.08,70.7761697 30.08,63 C30.08,55.2238303 23.7761697,48.92 16,48.92 C8.22383034,48.92 1.92,55.2238303 1.92,63 C1.92,70.7761697 8.22383034,77.08 16,77.08 L16,77.08 Z M18.968381,64.2934389 C19.2963048,64.2934389 19.5681524,64.4607627 19.8046476,64.7916361 C20.0387048,65.1250256 20.1630476,65.5313833 20.1630476,66.0182578 C20.1630476,66.5026161 20.0387048,66.9127481 19.8046476,67.2423634 C19.5693714,67.5757529 19.2963048,67.7405605 18.968381,67.7405605 C18.6294857,67.7405605 18.3320381,67.5757529 18.0967619,67.2423634 C17.8627048,66.9127481 17.7383619,66.5026161 17.7383619,66.0182578 C17.7383619,65.5313833 17.8627048,65.1250256 18.0967619,64.7916361 C18.330819,64.4595046 18.6282667,64.2934389 18.968381,64.2934389 M23.1619048,59.8159551 C24.0713143,60.8362527 24.5333333,62.0741971 24.5333333,63.5310463 C24.5333333,64.4720854 24.4284952,65.321285 24.2176,66.0761292 C24.0042667,66.8271991 23.7372952,67.4398809 23.4203429,67.9116585 C23.0985143,68.3846942 22.7035429,68.7986004 22.2329905,69.1558933 C21.7624381,69.5157023 21.3296762,69.7748655 20.9347048,69.9396731 C20.5385143,70.1057388 20.0874667,70.2328043 19.5803429,70.3246436 C19.072,70.4139669 18.6953143,70.4642898 18.430781,70.4793867 C18.1711238,70.4907094 17.8968381,70.4969997 17.5957333,70.4969997 C17.5286857,70.4969997 17.2995048,70.502032 16.9289143,70.5158708 C16.561981,70.5322258 16.2462476,70.536 16,70.536 C15.7537524,70.536 15.438019,70.5322258 15.0710857,70.5158708 C14.7004952,70.502032 14.4713143,70.4969997 14.4042667,70.4969997 C14.104381,70.4969997 13.8288762,70.4907094 13.569219,70.4793867 C13.3034667,70.4642898 12.928,70.4139669 12.4196571,70.3246436 C11.904,70.2340623 11.4614857,70.1057388 11.0652952,69.9396731 C10.6703238,69.7748655 10.2363429,69.5157023 9.76822857,69.1558933 C9.29645714,68.7986004 8.90148571,68.3846942 8.57965714,67.9116585 C8.26148571,67.4398809 7.99573333,66.8271991 7.7824,66.0761292 C7.57150476,65.321285 7.46666667,64.4720854 7.46666667,63.5310463 C7.46666667,62.0741971 7.92868571,60.8349947 8.83809524,59.8159551 C8.73813333,59.7643741 8.73447619,59.2535962 8.82834286,58.2848795 C8.90514286,57.3149048 9.10506667,56.4204145 9.43177143,55.6026667 C10.5703619,55.727216 11.979581,56.3939949 13.6630857,57.591681 C14.2311619,57.4419702 15.0052571,57.3614535 16,57.3614535 C17.0386286,57.3614535 17.8176,57.4419702 18.3381333,57.5929391 C19.1049143,57.0582578 19.8375619,56.6229643 20.5385143,56.292091 C21.2504381,55.9637338 21.7636571,55.7687324 22.0854857,55.7171514 L22.5682286,55.6039247 C22.8973714,56.4204145 23.0972952,57.3149048 23.1728762,58.2861376 C23.2655238,59.2535962 23.2618667,59.7643741 23.1619048,59.8159551 M16.0365714,69.6540904 C18.0943238,69.6540904 19.6376381,69.3999596 20.6945524,68.8904398 C21.7368381,68.382178 22.2695619,67.3329447 22.2695619,65.7502881 C22.2695619,64.8318944 21.9367619,64.0644695 21.2675048,63.4505296 C20.9286095,63.1196563 20.5202286,62.9158484 20.0618667,62.8391059 C19.6047238,62.7623634 18.9049905,62.7623634 17.9651048,62.8391059 C17.0276571,62.9171064 16.382781,62.9523325 16.0365714,62.9523325 C15.5672381,62.9523325 15.0613333,62.9296872 14.4286476,62.8781061 C13.7947429,62.8277832 13.2973714,62.7963314 12.9377524,62.7799764 C12.5793524,62.7686537 12.1953524,62.8139444 11.7699048,62.9158484 C11.3493333,63.0190104 11.0031238,63.1976568 10.7300571,63.4505296 C10.0949333,64.0405661 9.76700952,64.8054749 9.76700952,65.7502881 C9.76700952,67.3329447 10.2863238,68.382178 11.3273905,68.8904398 C12.363581,69.3999596 13.9032381,69.6540904 15.9622095,69.6540904 L16.0365714,69.6540904 M13.0694095,64.2934389 C13.3961143,64.2934389 13.669181,64.4607627 13.9044571,64.7916361 C14.1385143,65.1250256 14.2628571,65.5313833 14.2628571,66.0182578 C14.2628571,66.5026161 14.1385143,66.9127481 13.9044571,67.2423634 C13.6704,67.5757529 13.3961143,67.7405605 13.0694095,67.7405605 C12.7292952,67.7405605 12.4330667,67.5757529 12.1965714,67.2423634 C11.9625143,66.9127481 11.8381714,66.5026161 11.8381714,66.0182578 C11.8381714,65.5313833 11.9625143,65.1250256 12.1965714,64.7916361 C12.4318476,64.4595046 12.7280762,64.2934389 13.0694095,64.2934389" id="ico-github"></path>
                    </g>
                </g>
            </g>
        </g>
    </g>
</svg>