<?xml version="1.0" encoding="utf-8"?>
<!-- Generator: Adobe Illustrator 16.0.4, SVG Export Plug-In . SVG Version: 6.00 Build 0)  -->
<!DOCTYPE svg PUBLIC "-//W3C//DTD SVG 1.1//EN" "http://www.w3.org/Graphics/SVG/1.1/DTD/svg11.dtd">
<svg version="1.1" xmlns="http://www.w3.org/2000/svg" xmlns:xlink="http://www.w3.org/1999/xlink" x="0px" y="0px" width="32px"
	 height="32px" viewBox="0 0 32 32" enable-background="new 0 0 32 32" xml:space="preserve">
<g id="Calque_3" display="none">
	<rect x="-1.188" y="-0.5" display="inline" width="34.688" height="33"/>
</g>
<g id="Calque_1" xmlns:sketch="http://www.bohemiancoding.com/sketch/ns">
	<title>ico-behance</title>
	<desc>Created with Sketch.</desc>
	<g id="Page-1" sketch:type="MSPage">
		<g id="navigation" transform="translate(-334.000000, -690.000000)" sketch:type="MSArtboardGroup">
			<g id="left" sketch:type="MSLayerGroup">
				<g id="nav" transform="translate(110.000000, 303.000000)" sketch:type="MSShapeGroup">
					<g id="social-2" transform="translate(0.000000, 387.000000)">
						<path id="ico-behance" fill="#FFFFFF" d="M240,32c8.836,0,16-7.164,16-16c0-8.836-7.164-16-16-16c-8.836,0-16,7.164-16,16
							C224,24.836,231.164,32,240,32L240,32z M240,30.08c7.776,0,14.08-6.304,14.08-14.08S247.776,1.92,240,1.92
							S225.92,8.224,225.92,16S232.224,30.08,240,30.08L240,30.08z"/>
					</g>
				</g>
			</g>
		</g>
	</g>
</g>
<g id="Calque_2">
	<path id="Meetup" fill="none" d="M15.017,16.209c-0.077,0-0.154-0.006-0.21-0.085c0.017-0.302,0.116-0.528,0.21-0.745
		c0.045-0.099,0.088-0.196,0.123-0.301l0.042-0.124l0.035,0.126c0.083,0.292,0.056,0.835-0.071,1.127L15.017,16.209z M24.546,14.304
		l-0.038,0.037c-0.651,0.614-0.889,1.657-1.06,2.585c0.545-0.146,1.006-0.648,1.207-1.202c0.12-0.337,0.205-0.85-0.084-1.375
		L24.546,14.304z M12.641,15.978c0.034,0.014,0.074,0.029,0.127,0.029l0.026-0.006l0.066-0.032c0.052-0.25,0.035-0.574-0.043-0.889
		c-0.2,0.228-0.323,0.494-0.369,0.833l-0.006,0.046l0.103-0.005C12.583,15.956,12.61,15.965,12.641,15.978z M27.406,21.904
		c0,0.447-0.364,0.814-0.814,0.814H5.409c-0.45,0-0.815-0.367-0.815-0.814V9.846c0-0.45,0.365-0.814,0.815-0.814h21.183
		c0.45,0,0.814,0.364,0.814,0.814V21.904z M11.445,17.473c-0.226-0.623-0.373-1.329-0.514-2.021c-0.182-0.888-0.37-1.79-0.688-2.494
		c-0.038,0.003-0.076,0.038-0.112,0.038c-0.113,0-0.211,0.027-0.309,0.011c-0.092-0.017-0.186,0.08-0.295,0.08
		c-0.011,0-0.021,0-0.032,0c-0.029,0-0.055-0.112-0.066-0.121c-0.509,0.688-0.684,1.615-0.913,2.556
		C8.39,15.3,8.273,15.07,8.158,14.836c-0.204-0.411-0.414-0.833-0.653-1.172c-0.067-0.005-0.131-0.005-0.195-0.005
		c-0.273,0-0.521,0.049-0.754,0.116l-0.012,0.632c-0.025,1.084-0.047,2.02,0.226,2.905c0.051,0.008,0.103,0.012,0.154,0.012
		c0.327,0,0.617-0.16,0.743-0.223c0.02-0.279-0.015-0.494-0.05-0.725c-0.019-0.118-0.039-0.236,0.023-0.391
		c0.19,0.247,0.358,0.516,0.524,0.788c0.105,0.17,0.211,0.342,0.293,0.488c0.054,0.006,0.105,0.008,0.156,0.008
		c0.128,0,0.24-0.016,0.353-0.031c0.118-0.016,0.234-0.031,0.367-0.031l0.075,0.029c0.15-0.336,0.158-0.827,0.166-1.303
		c0.007-0.437,0.015-0.887,0.209-1.223c0.212,0.974,0.5,1.922,0.88,2.895c0.134-0.02,0.281-0.064,0.418-0.105
		c0.103-0.031,0.193-0.062,0.267-0.062C11.387,17.438,11.419,17.453,11.445,17.473z M14.069,17.676
		c-0.073-0.133-0.178-0.193-0.328-0.193c-0.115,0-0.245,0.033-0.371,0.066c-0.129,0.035-0.261,0.068-0.38,0.068
		c-0.032,0-0.063-0.008-0.094-0.014c-0.143-0.027-0.259-0.117-0.343-0.242c-0.152-0.225-0.189-0.596-0.053-1.048
		c0.22,0.06,0.496,0.068,0.799,0.068c0.026,0,0.049,0,0.074,0c0.077,0,0.148,0.026,0.195,0.044c0.148-0.605,0.068-1.428-0.052-1.903
		c-0.091-0.019-0.173-0.053-0.255-0.082c-0.143-0.049-0.278-0.098-0.461-0.098c-0.033,0-0.065-0.001-0.098,0.002
		c-0.582,0.079-0.978,0.896-1.068,1.663c-0.083,0.708,0.069,1.558,0.746,1.819c0.14,0.055,0.312,0.08,0.515,0.08
		C13.298,17.908,13.765,17.795,14.069,17.676z M16.38,17.504c-0.036-0.121-0.143-0.188-0.3-0.236
		c-0.132,0.205-0.338,0.318-0.583,0.318c-0.26,0-0.518-0.131-0.672-0.344c-0.148-0.203-0.185-0.457-0.054-0.743
		c0.21,0.045,0.415,0.083,0.606,0.083c0.159,0,0.302-0.023,0.423-0.037c-0.037-0.467,0.017-0.792,0.074-1.138
		c0.047-0.288,0.097-0.586,0.106-0.946c-0.265-0.201-0.547-0.303-0.861-0.331c-0.776,0.593-1.136,1.503-1.103,2.772
		c0.105,0.564,0.846,0.912,1.473,0.912C15.87,17.814,16.19,17.689,16.38,17.504z M19.069,15.762c-0.097-0.078-0.178-0.167-0.26-0.26
		c-0.155-0.174-0.302-0.337-0.539-0.402c-0.05,0.001-0.06,0.037-0.064,0.147c-0.005,0.088-0.013,0.223-0.147,0.223l-0.093,0.002
		l0.004-0.033c0.034-0.393,0.005-0.848-0.027-1.35c-0.043-0.713-0.089-1.38,0.038-1.983c-0.157-0.188-0.396-0.288-0.86-0.288
		c-0.006,0-0.011,0-0.016,0c-0.039,0-0.075-0.118-0.085-0.14c-0.238,0.734-0.122,1.538-0.011,2.417
		c0.064,0.501,0.125,0.97,0.052,1.423c-0.093,0-0.186-0.011-0.275-0.019c-0.08-0.006-0.159-0.015-0.229-0.015
		c-0.133,0-0.212,0.023-0.26,0.076c-0.055,0.062-0.07,0.165-0.068,0.291c0.184,0.125,0.502,0.134,0.807,0.141l0.193,0.045
		c0.009,0.268,0.029,0.522,0.049,0.778c0.033,0.375,0.062,0.766,0.056,1.188c0.08-0.012,0.154-0.018,0.225-0.021
		c0.137-0.008,0.268-0.016,0.414-0.033c-0.005-0.299-0.016-0.584-0.026-0.859c-0.016-0.385-0.028-0.748,0.005-1.141
		c0.136-0.038,0.3-0.047,0.459-0.057C18.674,15.877,18.948,15.863,19.069,15.762z M21.898,15.286
		c-0.191-0.156-0.427-0.425-0.696-0.425c-0.021,0-0.042,0-0.062,0c-0.028,0-0.052,0.074-0.066,0.061l-0.007,0.281
		c-0.018,0.771-0.044,1.839-0.781,2.097c-0.069-0.465-0.089-0.97-0.106-1.422c-0.009-0.241-0.019-0.459-0.01-0.612
		c-0.073-0.035-0.139-0.072-0.204-0.111c-0.183-0.11-0.355-0.213-0.633-0.249c-0.11,1.326,0.022,2.203,0.395,2.607
		c0.154,0.168,0.353,0.254,0.589,0.254c0.165,0,0.354-0.041,0.541-0.109l0.071-0.107c0.134-0.205,0.221-0.34,0.42-0.49
		c0.05-0.092,0.104-0.203,0.159-0.291C21.752,16.377,21.981,15.959,21.898,15.286z M25.458,14.039
		c-0.407-0.239-0.761-0.353-1.083-0.353c-0.4,0-0.75,0.181-1.064,0.553c-0.593,0.7-0.716,2.157-0.801,2.891
		c-0.036,0.014-0.074,0.027-0.114,0.039c-0.104,0.029-0.2,0.059-0.238,0.105c0.312,0.361,0.373,0.973,0.434,1.564
		c0.047,0.457,0.094,0.928,0.227,1.248c0.074,0.016,0.179,0.023,0.317,0.023c0.065,0,0.136-0.002,0.204-0.002
		c0.115,0,0.23,0.006,0.321,0.035c-0.217-0.545-0.302-1.283-0.234-2.359c0.88-0.207,1.661-0.83,2.039-1.627
		C25.693,15.675,25.874,14.914,25.458,14.039z"/>
</g>
</svg>
