<?xml version="1.0" encoding="UTF-8" standalone="no"?>
<svg width="32px" height="32px" viewBox="0 0 32 32" version="1.1" xmlns="http://www.w3.org/2000/svg" xmlns:xlink="http://www.w3.org/1999/xlink" xmlns:sketch="http://www.bohemiancoding.com/sketch/ns">
    <!-- Generator: Sketch 3.2.2 (9983) - http://www.bohemiancoding.com/sketch -->
    <title>ico-reddit</title>
    <desc>Created with Sketch.</desc>
    <defs></defs>
    <g id="Page-1" stroke="none" stroke-width="1" fill="none" fill-rule="evenodd" sketch:type="MSPage">
        <g id="navigation" sketch:type="MSArtboardGroup" transform="translate(-373.000000, -297.000000)" fill="#FFFFFF">
            <g id="1423709164_Reddit" sketch:type="MSLayerGroup" transform="translate(373.000000, 277.000000)">
                <g id="Page-1" sketch:type="MSShapeGroup">
                    <g id="Reddit">
                        <path d="M32,36 C32,27.1634436 24.8365564,20 16,20 C7.16344358,20 0,27.1634436 0,36 C0,44.8365564 7.16344358,52 16,52 C24.8365564,52 32,44.8365564 32,36 L32,36 Z M30.08,36 C30.08,28.2238303 23.7761697,21.92 16,21.92 C8.22383034,21.92 1.92,28.2238303 1.92,36 C1.92,43.7761697 8.22383034,50.08 16,50.08 C23.7761697,50.08 30.08,43.7761697 30.08,36 L30.08,36 Z M18.7428301,36.0731428 C18.0232398,36.0731428 17.44,36.6967394 17.44,37.466069 C17.44,38.2355992 18.0232398,38.859316 18.7428301,38.859316 C19.4622329,38.859316 20.0455102,38.2355992 20.0455102,37.466069 C20.0455102,36.6967394 19.4622329,36.0731428 18.7428301,36.0731428 L18.7428301,36.0731428 L18.7428301,36.0731428 Z M25.6,36.1179226 C25.6,34.8263359 24.6174587,33.7757262 23.4098415,33.7757262 C22.8638018,33.7757262 22.3642248,33.9909973 21.9802234,34.3458659 C20.4931176,33.3136632 18.56816,32.7111206 16.508052,32.6256217 L17.5964188,28.8304253 L20.7627811,29.588446 C20.7627061,29.5975894 20.7615436,29.606412 20.7615436,29.6155554 C20.7615436,30.6828077 21.5735718,31.5511508 22.5715257,31.5511508 C23.5694796,31.5511508 24.3815077,30.6828479 24.3815077,29.6155554 C24.3815077,28.5482629 23.5695546,27.68 22.5715257,27.68 C21.8215228,27.68 21.1768577,28.1704156 20.9025441,28.8670792 L17.4359931,28.0371945 C17.2603424,27.9951268 17.0841292,28.1046071 17.031404,28.2886783 L15.7899242,32.617521 C13.6180282,32.6547763 11.5783577,33.2640562 10.0197016,34.345946 C9.63577517,33.9911176 9.1360857,33.7758064 8.59008358,33.7758064 C7.38246637,33.7758064 6.4,34.8264563 6.4,36.1180029 C6.4,36.9650515 6.82266413,37.7084346 7.4542416,38.1198479 C7.42199149,38.339771 7.4050039,38.5622205 7.4050039,38.7868756 C7.4050039,40.4653729 8.31832,42.0325452 9.97665146,43.1990918 C11.5905453,44.3345187 13.7295911,44.96 15.9999625,44.96 C18.2701464,44.96 20.4093422,44.3343983 22.023236,43.1990918 C23.681605,42.0324249 24.5948461,40.4653729 24.5948461,38.7868756 C24.5948461,38.5622205 24.5779335,38.3398913 24.5456084,38.1198479 C25.1772609,37.7083946 25.6,36.9649311 25.6,36.1179226 L25.6,36.1179226 L25.6,36.1179226 Z M22.5714507,28.4166058 C23.1896031,28.4166058 23.6925551,28.9543827 23.6925551,29.6155153 C23.6925551,30.2764875 23.1896031,30.8144247 22.5714507,30.8144247 C21.9533732,30.8144247 21.4503463,30.2764875 21.4503463,29.6155153 C21.4503088,28.9544228 21.9532607,28.4166058 22.5714507,28.4166058 L22.5714507,28.4166058 L22.5714507,28.4166058 Z M7.08872768,36.1179226 C7.08872768,35.2326161 7.76219283,34.5123722 8.59000858,34.5123722 C8.90347226,34.5123722 9.19458592,34.6159573 9.43556186,34.7922086 C8.55385843,35.537236 7.9418185,36.4115544 7.63412979,37.3549296 C7.30131603,37.0602552 7.08872768,36.6151958 7.08872768,36.1179226 L7.08872768,36.1179226 L7.08872768,36.1179226 Z M15.9999625,44.2232739 C11.6404955,44.2232739 8.0938441,41.7845101 8.0938441,38.7867955 C8.0938441,38.6579456 8.10085664,38.5302988 8.11371917,38.4036145 C8.13873178,38.158547 8.1870695,37.9177706 8.25794477,37.6824882 C8.52277082,36.8036783 9.09693555,36.0018254 9.8986137,35.3333941 C10.0764019,35.1849741 10.2658151,35.0434919 10.4650909,34.9089875 C11.8923839,33.9457214 13.8467791,33.3505577 15.9999625,33.3505577 C18.1530334,33.3505577 20.1075036,33.9458016 21.5346841,34.9089875 C21.7339599,35.0434919 21.9234481,35.1850142 22.1011988,35.3333941 C22.9029145,36.0017853 23.4771167,36.8036783 23.7419052,37.6824882 C23.812818,37.9177706 23.8611557,38.158547 23.8861308,38.4036145 C23.8991059,38.5301785 23.9059684,38.6579456 23.9059684,38.7867955 C23.9059684,41.7845503 20.3593546,44.2232739 15.9999625,44.2232739 L15.9999625,44.2232739 L15.9999625,44.2232739 Z M24.3657952,37.3550098 C24.0581815,36.4116747 23.4460291,35.537236 22.5643256,34.7922487 C22.8053016,34.6159974 23.0963777,34.5124122 23.4098415,34.5124122 C24.2376947,34.5124122 24.9111598,35.2326161 24.9111598,36.1179628 C24.9111598,36.6151958 24.698684,37.0602552 24.3657952,37.3550098 L24.3657952,37.3550098 L24.3657952,37.3550098 Z M18.6240353,41.1425867 C17.9713077,41.7148518 17.1619795,41.9700251 15.9999625,41.9700251 C14.8378705,41.9700251 14.0285798,41.7148518 13.3757398,41.1425867 C13.2213516,41.0072402 12.9934257,41.0314622 12.8669003,41.1964847 C12.7402623,41.3616676 12.7628374,41.6053315 12.9173005,41.7407581 C13.6976785,42.4249498 14.6771823,42.7434853 15.9999625,42.7434853 C17.3227427,42.7434853 18.302209,42.4249498 19.0826245,41.7407581 C19.2370127,41.6053315 19.2596627,41.3616676 19.1330248,41.1964847 C19.0061992,41.0311414 18.7784234,41.0072402 18.6240353,41.1425867 L18.6240353,41.1425867 L18.6240353,41.1425867 Z M14.2853227,37.466069 C14.2853227,36.6967394 13.7021579,36.0731428 12.9827551,36.0731428 C12.2632398,36.0731428 11.68,36.6967394 11.68,37.466069 C11.68,38.2355992 12.2632772,38.859316 12.9827551,38.859316 C13.7021579,38.8592358 14.2853227,38.2355992 14.2853227,37.466069 L14.2853227,37.466069 L14.2853227,37.466069 Z" id="ico-reddit"></path>
                    </g>
                </g>
            </g>
        </g>
    </g>
</svg>