<?xml version="1.0" encoding="UTF-8" standalone="no"?>
<svg width="32px" height="32px" viewBox="0 0 32 32" version="1.1" xmlns="http://www.w3.org/2000/svg" xmlns:xlink="http://www.w3.org/1999/xlink" xmlns:sketch="http://www.bohemiancoding.com/sketch/ns">
    <!-- Generator: Sketch 3.2.2 (9983) - http://www.bohemiancoding.com/sketch -->
    <title>ico-linkedin</title>
    <desc>Created with Sketch.</desc>
    <defs></defs>
    <g id="Page-1" stroke="none" stroke-width="1" fill="none" fill-rule="evenodd" sketch:type="MSPage">
        <g id="navigation" sketch:type="MSArtboardGroup" transform="translate(-209.000000, -690.000000)" fill="#FFFFFF">
            <g id="left" sketch:type="MSLayerGroup">
                <g id="nav" transform="translate(110.000000, 303.000000)" sketch:type="MSShapeGroup">
                    <g id="social-2" transform="translate(0.000000, 387.000000)">
                        <path d="M115,32 C123.836556,32 131,24.8365564 131,16 C131,7.16344358 123.836556,0 115,0 C106.163444,0 99,7.16344358 99,16 C99,24.8365564 106.163444,32 115,32 L115,32 Z M115,30.08 C122.77617,30.08 129.08,23.7761697 129.08,16 C129.08,8.22383034 122.77617,1.92 115,1.92 C107.22383,1.92 100.92,8.22383034 100.92,16 C100.92,23.7761697 107.22383,30.08 115,30.08 L115,30.08 Z M107.96,12.8755507 L107.96,22.1812374 L110.974454,22.1812374 L110.974454,12.8755507 L107.96,12.8755507 L107.96,12.8755507 Z M109.665406,8.32 C108.63418,8.32 107.96,9.0149511 107.96,9.92736781 C107.96,10.8208852 108.614254,11.5358473 109.626276,11.5358473 L109.64554,11.5358473 C110.696631,11.5358473 111.351246,10.8208852 111.351246,9.92736781 C111.331681,9.0149511 110.696631,8.32 109.665406,8.32 L109.665406,8.32 Z M118.56923,12.8755507 C116.968753,12.8755507 116.252192,13.7787647 115.852103,14.4123857 L115.852103,13.0943132 L112.837287,13.0943132 C112.877019,13.9675108 112.837287,22.4 112.837287,22.4 L115.852103,22.4 L115.852103,17.2029368 C115.852103,16.9248205 115.871668,16.6473836 115.951373,16.4482614 C116.169236,15.8926464 116.665284,15.3173909 117.498091,15.3173909 C118.589336,15.3173909 119.025546,16.1707009 119.025546,17.4212053 L119.025546,22.399753 L122.03988,22.399753 L122.04,17.0641565 C122.04,14.2058521 120.55288,12.8755507 118.56923,12.8755507 L118.56923,12.8755507 Z" id="ico-linkedin"></path>
                    </g>
                </g>
            </g>
        </g>
    </g>
</svg>