<?xml version="1.0" encoding="UTF-8" standalone="no"?>
<svg width="32px" height="32px" viewBox="0 0 32 32" version="1.1" xmlns="http://www.w3.org/2000/svg" xmlns:xlink="http://www.w3.org/1999/xlink" xmlns:sketch="http://www.bohemiancoding.com/sketch/ns">
    <!-- Generator: Sketch 3.2.2 (9983) - http://www.bohemiancoding.com/sketch -->
    <title>ico-googleplus</title>
    <desc>Created with Sketch.</desc>
    <defs></defs>
    <g id="Page-1" stroke="none" stroke-width="1" fill="none" fill-rule="evenodd" sketch:type="MSPage">
        <g id="navigation" sketch:type="MSArtboardGroup" transform="translate(-405.000000, -718.000000)" fill="#FFFFFF">
            <g id="left" sketch:type="MSLayerGroup">
                <g id="nav" transform="translate(110.000000, 303.000000)" sketch:type="MSShapeGroup">
                    <g id="social-2" transform="translate(0.000000, 387.000000)">
                        <g id="1423709100_Google_" transform="translate(295.000000, 28.000000)">
                            <g id="Page-1">
                                <g id="Google-+">
                                    <path d="M16,0 C7.16344358,0 0,7.16344358 0,16 C0,24.8365564 7.16344358,32 16,32 C24.8365564,32 32,24.8365564 32,16 C32,7.16344358 24.8365564,0 16,0 L16,0 Z M16,1.92 C8.22383034,1.92 1.92,8.22383034 1.92,16 C1.92,23.7761697 8.22383034,30.08 16,30.08 C23.7761697,30.08 30.08,23.7761697 30.08,16 C30.08,8.22383034 23.7761697,1.92 16,1.92 L16,1.92 Z M24.4767921,14.1502408 L24.4767921,17.5284398 L23.0423532,17.5284398 L23.0423532,14.1502408 L19.6953469,14.1502408 L19.6953469,12.7442178 L23.0423532,12.7442178 L23.0423532,9.39569971 L24.4767921,9.39569971 L24.4767921,12.7442178 L27.0320375,12.7442178 C27.2207639,13.2002753 27.3840159,13.6695628 27.52,14.1502408 L24.4767921,14.1502408 L24.4767921,14.1502408 Z M7.5043536,23.8565084 C9.36937862,22.7148484 11.8812332,22.5640631 13.2395752,22.4779001 C12.819136,21.9393812 12.3340139,21.3685513 12.3340139,20.4315284 C12.3340139,19.9253208 12.4849407,19.6237502 12.6358676,19.2683277 C12.3016724,19.3006389 11.9782577,19.33295 11.6764039,19.33295 C8.49615878,19.33295 6.6958167,16.9634671 6.6958167,14.6262953 C6.6958167,13.247687 7.33186573,11.7161395 8.61474419,10.6078676 C10.3288424,9.20017939 12.3663553,8.96 13.9834291,8.96 L20.1606509,8.96 L18.2417233,10.0381148 L16.3874788,10.0381148 C17.0774303,10.6078676 18.5112356,11.8066106 18.5112356,14.0877764 C18.5112356,16.3064741 17.2499181,17.3512007 15.9993811,18.3420753 C15.6005028,18.7298089 15.1585027,19.1498536 15.1585027,19.8068466 C15.1585027,20.4638396 15.6005028,20.8300324 15.9346981,21.0992918 L17.0127473,21.9393812 C18.3387478,23.0379597 19.5353823,24.0611455 19.5353823,26.1290579 C19.5353823,27.4927695 18.8983819,28.8615119 17.6572338,29.9119272 C16.9894346,30.0206985 16.3043704,30.0781192 15.6062343,30.08 C16.8665244,29.527684 17.5194304,28.5171328 17.5194304,27.303029 C17.5194304,25.7736355 16.5384056,24.9658572 14.2529414,23.3395302 C14.0157706,23.3179895 13.8648437,23.3179895 13.56299,23.3179895 C13.2934776,23.3179895 11.6764039,23.3718414 10.4150863,23.7918861 C9.75747635,24.0288344 7.8385488,24.7504496 7.8385488,26.8829843 C7.8385488,27.1147386 7.86324339,27.3394257 7.91142432,27.5558243 C4.75054706,25.2132367 6.11983407,25.5438424 5.76,25.5438419 C6.11983405,24.9392966 6.67778413,24.3449352 7.5043536,23.8565084 L7.5043536,23.8565084 Z M12.0968431,9.94872058 C11.3206477,9.94872058 10.4797693,10.3386083 9.99464717,10.9385183 C9.48796403,11.5675083 9.33703718,12.3752865 9.33703718,13.1507537 C9.33703718,15.1648141 10.5013303,18.4928606 13.0886483,18.4928606 C13.8325022,18.4928606 14.6410391,18.1266678 15.1261612,17.6527712 C15.8161127,16.9634671 15.8700152,16.0049036 15.8700152,15.4663847 C15.8700152,13.3015389 14.5871366,9.94872058 12.0968431,9.94872058 L12.0968431,9.94872058 Z" id="ico-googleplus"></path>
                                </g>
                            </g>
                        </g>
                    </g>
                </g>
            </g>
        </g>
    </g>
</svg>