<?xml version="1.0" encoding="UTF-8" standalone="no"?>
<svg width="32px" height="32px" viewBox="0 0 32 32" version="1.1" xmlns="http://www.w3.org/2000/svg" xmlns:xlink="http://www.w3.org/1999/xlink" xmlns:sketch="http://www.bohemiancoding.com/sketch/ns">
    <!-- Generator: Sketch 3.2.2 (9983) - http://www.bohemiancoding.com/sketch -->
    <title>ico-soundcloud</title>
    <desc>Created with Sketch.</desc>
    <defs></defs>
    <g id="Page-1" stroke="none" stroke-width="1" fill="none" fill-rule="evenodd" sketch:type="MSPage">
        <g id="navigation" sketch:type="MSArtboardGroup" transform="translate(-311.000000, -753.000000)" fill="#FFFFFF">
            <g id="1423709566_SoundCloud" sketch:type="MSLayerGroup" transform="translate(311.000000, 753.000000)">
                <g id="Page-1" sketch:type="MSShapeGroup">
                    <g id="SoundCloud">
                        <path d="M16,0 C7.16344358,0 0,7.16344358 0,16 C0,24.8365564 7.16344358,32 16,32 C24.8365564,32 32,24.8365564 32,16 C32,7.16344358 24.8365564,0 16,0 L16,0 Z M16,1.92 C8.22383034,1.92 1.92,8.22383034 1.92,16 C1.92,23.7761697 8.22383034,30.08 16,30.08 C23.7761697,30.08 30.08,23.7761697 30.08,16 C30.08,8.22383034 23.7761697,1.92 16,1.92 L16,1.92 Z M7.17100525,16.9596287 L7.04,18.10559 L7.17100525,19.2318863 C7.17587027,19.2792754 7.20548032,19.3123591 7.24289542,19.3123591 C7.27912045,19.3123591 7.30862554,19.2795978 7.3143655,19.2323699 L7.46969581,18.10559 L7.3143655,16.9593063 C7.30883552,16.9120785 7.27894547,16.8787933 7.24289542,16.8787933 C7.20551533,16.8787933 7.17583526,16.9120785 7.17100525,16.9596287 L7.17100525,16.9596287 Z M8.22419232,16.2525805 C8.22419232,16.2529835 8.04800198,18.1054287 8.04800198,18.1054287 L8.22419232,19.9172951 C8.2291623,19.9658931 8.26059238,20.0009513 8.29877747,20.0009513 C8.33622752,20.0009513 8.36695757,19.966699 8.37311763,19.9178189 L8.573528,18.1054287 L8.37336262,16.2525805 C8.36720262,16.2033378 8.33654253,16.1693273 8.29877747,16.1693273 C8.26080237,16.1693273 8.22937235,16.2044661 8.22419232,16.2525805 L8.22419232,16.2525805 Z M9.21399424,15.8475168 L9.05603891,18.1061541 L9.21399424,20.2914108 C9.21822925,20.3590692 9.26372934,20.4101656 9.31923942,20.4101656 C9.37411955,20.4101656 9.41944467,20.3589886 9.42430963,20.2914108 L9.60396499,18.1061541 L9.42430963,15.8470332 C9.41947962,15.7793346 9.37418957,15.7282382 9.31923942,15.7282382 C9.26372934,15.7282382 9.21847424,15.7793748 9.21399424,15.8475168 L9.21399424,15.8475168 Z M10.2130362,16.0110413 L10.0641109,18.1061944 L10.2130362,20.3094638 C10.2173412,20.3871964 10.2687563,20.4459895 10.3335064,20.4459895 C10.3973116,20.4459895 10.4489366,20.3871561 10.4537316,20.3096653 L10.622957,18.1061944 L10.4537316,16.0100742 C10.4491816,15.932664 10.3974865,15.8743142 10.3335064,15.8743142 C10.2687213,15.8743142 10.2170962,15.9331476 10.2130362,16.0110413 L10.2130362,16.0110413 Z M11.2124982,14.6981706 L11.0721129,18.1070406 L11.2124982,20.3101085 C11.2161382,20.3962229 11.2848783,20.4640828 11.3571884,20.4640828 C11.4291136,20.4640828 11.5021587,20.3959005 11.5021587,20.3095847 L11.651504,18.1070406 L11.4882637,14.6981706 C11.4839236,14.6116131 11.4198385,14.5434308 11.3479134,14.5434308 C11.2756733,14.5434308 11.2159281,14.6115727 11.2124982,14.6981706 L11.2124982,14.6981706 Z M12.2111551,13.9190717 C12.2111551,13.9193538 12.0801848,18.1077256 12.0801848,18.1077256 L12.2114351,20.2968912 C12.2147251,20.3925559 12.2810152,20.4682736 12.3623204,20.4682736 C12.4428906,20.4682736 12.5093557,20.3925559 12.5132057,20.2960852 L12.661256,18.1077256 L12.5132057,13.9190717 C12.5091807,13.8223996 12.4428556,13.7469236 12.3622854,13.7469236 C12.2810152,13.7469236 12.2147251,13.8225608 12.2111551,13.9190717 L12.2111551,13.9190717 Z M13.201097,13.4169732 L13.0881868,18.1081689 L13.2012371,20.2614703 C13.204002,20.3768804 13.3011272,20.4681124 13.3999674,20.4681124 C13.4986326,20.4681124 13.5988028,20.3768804 13.5988028,20.2607853 L13.7084931,18.1082898 L13.5727277,13.4169329 C13.5695777,13.3005154 13.4810976,13.2090819 13.3826424,13.2090819 C13.2835922,13.2090819 13.2037921,13.3002333 13.201097,13.4169732 L13.201097,13.4169732 Z M14.191109,13.7045717 L14.0962938,18.1090957 L14.191109,20.2285478 C14.193384,20.3635019 14.2890742,20.4702079 14.4058344,20.4702079 C14.5222446,20.4702079 14.6202098,20.363663 14.6202098,20.2270971 L14.72423,18.1093375 L14.6166748,13.7042493 C14.6138748,13.5678849 14.5198646,13.4610982 14.4034544,13.4610982 C14.2868692,13.4610982 14.193384,13.5678445 14.191109,13.7045717 L14.191109,13.7045717 Z M15.2037309,12.3934338 L15.1043308,18.1102241 L15.2040109,20.184866 C15.205761,20.3365836 15.3263712,20.4613828 15.4587064,20.4613828 C15.5907617,20.4613828 15.7133669,20.336503 15.7133669,20.1826094 L15.8095121,18.1102241 L15.6953419,12.3929905 C15.6934169,12.2397014 15.5787917,12.11462 15.4467364,12.11462 C15.3143661,12.11462 15.205726,12.2397014 15.2037309,12.3934338 L15.2037309,12.3934338 Z M21.903129,15.601142 C21.7277087,13.3140148 20.0618804,11.52 18.0299515,11.52 C17.5327055,11.52 17.0502995,11.6326296 16.6222837,11.8232739 C16.4559634,11.8973395 16.4122833,11.973702 16.4122833,12.1215914 L16.4122833,20.1758798 C16.4122833,20.3311838 16.5164785,20.460577 16.6480438,20.4757688 C16.6536438,20.4764941 22.7171956,20.48 22.7565007,20.48 C23.973698,20.48 24.96,19.34371 24.96,17.942146 C24.96,16.540582 23.9727531,15.4040905 22.7556257,15.4040905 C22.4536801,15.4040905 22.1654895,15.4744488 21.903129,15.601142 L21.903129,15.601142 Z" id="ico-soundcloud"></path>
                    </g>
                </g>
            </g>
        </g>
    </g>
</svg>