<?xml version="1.0" encoding="UTF-8" standalone="no"?>
<svg width="32px" height="32px" viewBox="0 0 32 32" version="1.1" xmlns="http://www.w3.org/2000/svg" xmlns:xlink="http://www.w3.org/1999/xlink" xmlns:sketch="http://www.bohemiancoding.com/sketch/ns">
    <!-- Generator: Sketch 3.2.2 (9983) - http://www.bohemiancoding.com/sketch -->
    <title>ico-facebook</title>
    <desc>Created with Sketch.</desc>
    <defs></defs>
    <g id="Page-1" stroke="none" stroke-width="1" fill="none" fill-rule="evenodd" sketch:type="MSPage">
        <g id="navigation" sketch:type="MSArtboardGroup" transform="translate(-125.000000, -690.000000)" fill="#FFFFFF">
            <g id="left" sketch:type="MSLayerGroup">
                <g id="nav" transform="translate(110.000000, 303.000000)" sketch:type="MSShapeGroup">
                    <g id="social-2" transform="translate(0.000000, 387.000000)">
                        <path d="M31,32 C39.8365564,32 47,24.8365564 47,16 C47,7.16344358 39.8365564,0 31,0 C22.1634436,0 15,7.16344358 15,16 C15,24.8365564 22.1634436,32 31,32 L31,32 Z M31,30.08 C38.7761697,30.08 45.08,23.7761697 45.08,16 C45.08,8.22383034 38.7761697,1.92 31,1.92 C23.2238303,1.92 16.92,8.22383034 16.92,16 C16.92,23.7761697 23.2238303,30.08 31,30.08 L31,30.08 Z M32.1612926,23.04 L32.1612926,15.9991757 L34.2439967,15.9991757 L34.52,13.5728686 L32.1612926,13.5728686 L32.1648311,12.3584785 C32.1648311,11.7256603 32.2292614,11.3865818 33.2032344,11.3865818 L34.5052563,11.3865818 L34.5052563,8.96 L32.4222572,8.96 C29.9202404,8.96 29.0395954,10.13702 29.0395954,12.1163974 L29.0395954,13.5731434 L27.48,13.5731434 L27.48,15.9994504 L29.0395954,15.9994504 L29.0395954,23.04 L32.1612926,23.04 L32.1612926,23.04 Z" id="ico-facebook"></path>
                    </g>
                </g>
            </g>
        </g>
    </g>
</svg>