<?xml version="1.0" encoding="UTF-8" standalone="no"?>
<svg width="32px" height="32px" viewBox="0 0 32 32" version="1.1" xmlns="http://www.w3.org/2000/svg" xmlns:xlink="http://www.w3.org/1999/xlink" xmlns:sketch="http://www.bohemiancoding.com/sketch/ns">
    <!-- Generator: Sketch 3.2.2 (9983) - http://www.bohemiancoding.com/sketch -->
    <title>ico-twitter</title>
    <desc>Created with Sketch.</desc>
    <defs></defs>
    <g id="Page-1" stroke="none" stroke-width="1" fill="none" fill-rule="evenodd" sketch:type="MSPage">
        <g id="navigation" sketch:type="MSArtboardGroup" transform="translate(-294.000000, -690.000000)" fill="#FFFFFF">
            <g id="left" sketch:type="MSLayerGroup">
                <g id="nav" transform="translate(110.000000, 303.000000)" sketch:type="MSShapeGroup">
                    <g id="social-2" transform="translate(0.000000, 387.000000)">
                        <path d="M200,32 C208.836556,32 216,24.8365564 216,16 C216,7.16344358 208.836556,0 200,0 C191.163444,0 184,7.16344358 184,16 C184,24.8365564 191.163444,32 200,32 L200,32 Z M200,30.08 C207.77617,30.08 214.08,23.7761697 214.08,16 C214.08,8.22383034 207.77617,1.92 200,1.92 C192.22383,1.92 185.92,8.22383034 185.92,16 C185.92,23.7761697 192.22383,30.08 200,30.08 L200,30.08 Z M199.796643,13.1547504 L199.827164,13.6807047 L199.318485,13.6163021 C197.466894,13.3694256 195.849296,12.5321923 194.475863,11.1260696 L193.804407,10.4283751 L193.631456,10.9435956 C193.265207,12.092108 193.4992,13.305023 194.262218,14.1207889 C194.669161,14.5716068 194.577599,14.6360094 193.875622,14.3676654 C193.631456,14.2817953 193.417811,14.2173927 193.397464,14.249594 C193.326249,14.3247304 193.570415,15.3015026 193.763713,15.687918 C194.028226,16.2246061 194.567425,16.7505603 195.157492,17.0618394 L195.655998,17.3087159 L195.06593,17.3194497 C194.49621,17.3194497 194.475863,17.3301834 194.536904,17.5555924 C194.740376,18.2532869 195.544088,18.9939164 196.439363,19.3159292 L197.070125,19.5413382 L196.520752,19.8848186 C195.706866,20.3785716 194.750549,20.6576494 193.794233,20.6791169 C193.336422,20.6898506 192.96,20.7327857 192.96,20.764987 C192.96,20.8723245 194.201176,21.4734152 194.9235,21.709558 C197.090472,22.4072524 199.664387,22.1067071 201.597366,20.9152596 C202.970799,20.0672925 204.344232,18.382092 204.985167,16.7505603 C205.331069,15.8811257 205.676971,14.2925291 205.676971,13.530432 C205.676971,13.036679 205.707491,12.9722765 206.277212,12.3819196 C206.61294,12.0384392 206.928321,11.6627576 206.989362,11.55542 C207.091098,11.3514785 207.080924,11.3514785 206.562072,11.5339524 C205.697318,11.8559653 205.575235,11.8130303 206.002525,11.330011 C206.317906,10.9865306 206.694328,10.3639725 206.694328,10.1814986 C206.694328,10.1492973 206.541725,10.2029661 206.368774,10.2995699 C206.185649,10.4069076 205.778706,10.567914 205.473499,10.6645178 L204.924126,10.8469917 L204.425621,10.4927776 C204.150934,10.2995699 203.764338,10.0848947 203.560867,10.0204922 C203.042014,9.87021952 202.248475,9.89168704 201.780491,10.0634272 C200.508794,10.5464465 199.705081,11.7915628 199.796643,13.1547504 C199.796643,13.1547504 199.705081,11.7915628 199.796643,13.1547504 L199.796643,13.1547504 Z" id="ico-twitter"></path>
                    </g>
                </g>
            </g>
        </g>
    </g>
</svg>